<svg xmlns="http://www.w3.org/2000/svg" viewBox="0 0 512 512">
  <defs>
    <linearGradient id="glow" x1="0%" y1="0%" x2="100%" y2="100%">
      <stop offset="0%" style="stop-color:#00ff41;stop-opacity:1" />
      <stop offset="100%" style="stop-color:#00cc33;stop-opacity:1" />
    </linearGradient>
    <filter id="phosphor-glow" x="-50%" y="-50%" width="200%" height="200%">
      <feGaussianBlur stdDeviation="8" result="coloredBlur"/>
      <feMerge>
        <feMergeNode in="coloredBlur"/>
        <feMergeNode in="SourceGraphic"/>
      </feMerge>
    </filter>
  </defs>
  
  <!-- Background -->
  <rect width="512" height="512" rx="80" fill="#0d0d0d"/>
  
  <!-- Terminal window frame -->
  <rect x="40" y="80" width="432" height="352" rx="20" fill="#1a1a1a" stroke="#333" stroke-width="4"/>
  
  <!-- Terminal header bar -->
  <rect x="40" y="80" width="432" height="40" rx="20" ry="0" fill="#252525"/>
  <rect x="40" y="100" width="432" height="20" fill="#252525"/>
  
  <!-- Traffic light buttons -->
  <circle cx="80" cy="100" r="10" fill="#ff5f57"/>
  <circle cx="110" cy="100" r="10" fill="#febc2e"/>
  <circle cx="140" cy="100" r="10" fill="#28c840"/>
  
  <!-- Keyboard icon with glow -->
  <g filter="url(#phosphor-glow)">
    <!-- Keyboard base -->
    <rect x="80" y="200" width="352" height="180" rx="16" fill="none" stroke="url(#glow)" stroke-width="6"/>
    
    <!-- Top row keys -->
    <rect x="100" y="220" width="30" height="30" rx="4" fill="url(#glow)" opacity="0.9"/>
    <rect x="140" y="220" width="30" height="30" rx="4" fill="url(#glow)" opacity="0.7"/>
    <rect x="180" y="220" width="30" height="30" rx="4" fill="url(#glow)" opacity="0.9"/>
    <rect x="220" y="220" width="30" height="30" rx="4" fill="url(#glow)" opacity="0.7"/>
    <rect x="260" y="220" width="30" height="30" rx="4" fill="url(#glow)" opacity="0.9"/>
    <rect x="300" y="220" width="30" height="30" rx="4" fill="url(#glow)" opacity="0.7"/>
    <rect x="340" y="220" width="30" height="30" rx="4" fill="url(#glow)" opacity="0.9"/>
    <rect x="380" y="220" width="30" height="30" rx="4" fill="url(#glow)" opacity="0.7"/>
    
    <!-- Middle row keys -->
    <rect x="110" y="260" width="30" height="30" rx="4" fill="url(#glow)" opacity="0.7"/>
    <rect x="150" y="260" width="30" height="30" rx="4" fill="url(#glow)" opacity="0.9"/>
    <rect x="190" y="260" width="30" height="30" rx="4" fill="url(#glow)" opacity="0.7"/>
    <rect x="230" y="260" width="30" height="30" rx="4" fill="url(#glow)" opacity="0.9"/>
    <rect x="270" y="260" width="30" height="30" rx="4" fill="url(#glow)" opacity="0.7"/>
    <rect x="310" y="260" width="30" height="30" rx="4" fill="url(#glow)" opacity="0.9"/>
    <rect x="350" y="260" width="30" height="30" rx="4" fill="url(#glow)" opacity="0.7"/>
    
    <!-- Bottom row keys -->
    <rect x="120" y="300" width="30" height="30" rx="4" fill="url(#glow)" opacity="0.9"/>
    <rect x="160" y="300" width="30" height="30" rx="4" fill="url(#glow)" opacity="0.7"/>
    <rect x="200" y="300" width="30" height="30" rx="4" fill="url(#glow)" opacity="0.9"/>
    <rect x="240" y="300" width="30" height="30" rx="4" fill="url(#glow)" opacity="0.7"/>
    <rect x="280" y="300" width="30" height="30" rx="4" fill="url(#glow)" opacity="0.9"/>
    <rect x="320" y="300" width="30" height="30" rx="4" fill="url(#glow)" opacity="0.7"/>
    <rect x="360" y="300" width="30" height="30" rx="4" fill="url(#glow)" opacity="0.9"/>
    
    <!-- Spacebar -->
    <rect x="150" y="340" width="200" height="25" rx="4" fill="url(#glow)" opacity="0.8"/>
  </g>
  
  <!-- Cursor blink on a key -->
  <rect x="230" y="260" width="30" height="30" rx="4" fill="#00ff41">
    <animate attributeName="opacity" values="1;0.3;1" dur="1s" repeatCount="indefinite"/>
  </rect>
</svg>
